<svg width="200" viewBox="0 0 250 95" xmlns="http://www.w3.org/2000/svg">
<g>
  <rect x="0" y="12" width="28" height="70" rx="6" fill="#7c6ef0" opacity="0.85"/>
  <rect x="36" y="0" width="28" height="95" rx="6" fill="#6c5ce7"/>
  <rect x="72" y="22" width="28" height="55" rx="6" fill="#a29bfe" opacity="0.75"/>
  <rect x="8" y="20" width="12" height="6" rx="2" fill="#fff" opacity="0.5"/>
  <rect x="8" y="32" width="12" height="6" rx="2" fill="#fff" opacity="0.5"/>
  <rect x="8" y="44" width="12" height="6" rx="2" fill="#fff" opacity="0.5"/>
  <rect x="44" y="8" width="12" height="6" rx="2" fill="#fff" opacity="0.5"/>
  <rect x="44" y="20" width="12" height="6" rx="2" fill="#fff" opacity="0.5"/>
  <rect x="44" y="32" width="12" height="6" rx="2" fill="#fff" opacity="0.5"/>
  <rect x="44" y="44" width="12" height="6" rx="2" fill="#fff" opacity="0.5"/>
  <rect x="80" y="30" width="12" height="6" rx="2" fill="#fff" opacity="0.5"/>
  <rect x="80" y="42" width="12" height="6" rx="2" fill="#fff" opacity="0.5"/>
  <text x="112" y="67" font-family="system-ui, -apple-system, sans-serif" font-size="48" font-weight="500" fill="#6c5ce7" letter-spacing="-1">casban</text>
</g>
</svg>
